<?xml version="1.0" encoding="UTF-8" standalone="no"?>
<svg
   version="1.1"
   x="0px"
   y="0px"
   viewBox="0 0 92.339096 75.824219"
   enable-background="new 0 0 100 100"
   xml:space="preserve"
   id="svg2"
   sodipodi:docname="acacia-tree.svg"
   inkscape:version="1.3 (0e150ed6c4, 2023-07-21)"
   width="92.339096"
   height="75.824219"
   xmlns:inkscape="http://www.inkscape.org/namespaces/inkscape"
   xmlns:sodipodi="http://sodipodi.sourceforge.net/DTD/sodipodi-0.dtd"
   xmlns="http://www.w3.org/2000/svg"
   xmlns:svg="http://www.w3.org/2000/svg"><defs
     id="defs2" /><sodipodi:namedview
     id="namedview2"
     pagecolor="#505050"
     bordercolor="#ffffff"
     borderopacity="1"
     inkscape:showpageshadow="0"
     inkscape:pageopacity="0"
     inkscape:pagecheckerboard="1"
     inkscape:deskcolor="#d1d1d1"
     inkscape:zoom="9.384"
     inkscape:cx="46.14237"
     inkscape:cy="33.407928"
     inkscape:window-width="3440"
     inkscape:window-height="1369"
     inkscape:window-x="3432"
     inkscape:window-y="-8"
     inkscape:window-maximized="1"
     inkscape:current-layer="svg2" /><rect
     style="display:inline;fill:#ffffff;stroke:#000000;stroke-width:0;stroke-dasharray:none"
     id="rect2"
     width="92.391319"
     height="75.87384"
     x="0.0058908188"
     y="0.060447227"
     inkscape:label="rect2" /><path
     fill-rule="evenodd"
     clip-rule="evenodd"
     d="m 63.984027,18.767579 c -0.631836,-0.499024 -0.895508,-0.815918 -1.5,-0.07861 -0.264648,0.316407 -0.553711,0.895508 -0.974609,1.000489 -0.341797,0.105469 -0.657227,0.0791 -0.948243,0.0791 0.105469,-0.184082 0.184571,-0.395019 0.291016,-0.60498 0.07813,-0.184082 0.129883,-0.395996 0.208984,-0.580078 l 0.02637,-0.05225 c 0.18457,-0.394532 0.526367,-0.473633 0.895507,-0.553223 0.921875,-0.157715 1.13086,-0.131348 1.948243,-0.657715 0.68457,-0.447754 0.84375,-0.658691 1.394531,-1.210937 0.263672,-0.211426 0.869141,0.0791 1.686523,-0.237305 1.079102,-0.39502 3.211914,-1.027344 4.369141,-0.869141 1.475586,0.211426 1.711914,0.368653 3.319336,0.316407 1.053711,-0.02637 2.264648,0.552734 2.948242,0.420898 0.288086,-0.05273 0.341797,-0.157715 0.473633,-0.368652 0.341797,-1.000489 -1.658203,-3.659668 -2.264649,-4.502442 -0.86914,-1.1054681 -0.895507,-1.2373041 -1.316406,-2.5268551 -0.420898,-1.238281 -1.5,-0.26416 -2.762695,-2.001465 -1.081055,-1.474609 -1.292969,-0.68457 -2.791992,-1.132812 -1.210938,-0.368165 -0.921875,-1.026856 -2.185547,-0.868165 -0.762696,0.07861 -0.895508,-0.526855 -1.791016,-0.868652 -0.789062,-0.316894 -1.68457,-0.842773 -2.370117,-0.290039 -1.341797,1.07959 -3.107422,-1.500977 -4.15918,-1.842773 -1.027344,-0.316407 -2.580078,-0.65869201 -3.659179,-0.65869201 -1.632813,0 -1.344727,-0.10498 -2.764649,-0.579101 -1.265625,-0.39502 -2.422851,0.474121 -3.739258,0.868652 -1.605957,0.50048801 -1.395019,0.42187501 -2.579589,1.55419901 -1.185547,1.131836 -2.764649,0.578125 -4.31836,0.446777 -1.210937,-0.10498 -1.738281,-0.131347 -2.94873,-0.07861 -1.632813,0.05225 -1.237793,-0.5 -2.554688,0.763672 -2.211426,2.106445 -4.133789,-0.448242 -4.660156,1.711426 -0.526367,2.15918 -1.316406,0.31543 -2.47461,2.500976 -1.000976,1.948243 0.263184,2.9223641 2.026856,3.4492191 1.26416,0.368164 0.895508,0.368164 1.895996,0.97461 0.526367,0.315429 1.053223,0.157714 0.921875,0.657226 -0.210449,0.76416 -2.053711,-0.815429 -2.44873,-0.974121 -1.026856,-0.368164 -1.369629,-0.02588 -2.422852,-1.079101 -1.104981,-1.1318361 -0.89502,-1.8696291 -3.000977,-1.4736331 -1.658691,0.288574 -3.686523,1.1318361 -4.687011,2.5527341 -0.842774,1.186035 -2.105957,0.527344 -3.395996,0.26416 -0.737793,-0.158691 -3.817872,-0.710937 -4.476563,-0.68457 -0.921387,0.07861 -1.527344,0.499512 -2.422363,0.737305 -1.6323244,0.420898 -0.9472664,1.263672 -2.3691414,2.027344 -1.211914,0.631347 -2.000976,1.790527 -2.212402,3.159668 -0.3945314,2.554199 2.870117,0.499511 4.1865234,1.526855 0.895508,0.710449 0.447754,1.237793 1.949219,1.369141 l 0.368164,0.02637 c 1.105957,0.10498 0.868652,0.289062 1.632324,0.790039 0.21045,0.131348 1.448243,0.578613 1.605957,0.60498 0.526856,0 1.079102,-0.05273 1.553223,-0.289062 0.685059,-0.342773 1.105957,-0.580078 1.869629,-0.869629 0.447754,-0.157715 1.07959,0.158203 1.658691,0.369629 -0.02637,0.07861 -0.05273,0.157227 -0.05273,0.262695 -0.289551,1.605957 0.526367,1.421875 0.816406,2.053711 -0.605469,0.420899 -1.842773,0.342285 -2.500976,0.104981 -1.895996,-0.736817 -2.765137,-0.341797 -4.291993,0.580078 -1.079589,0.631347 -1.948242,0.841797 -2.84375,1.815918 -0.210449,0.237793 -0.420898,0.527344 -0.552734,0.842773 -0.368652,0.921387 0.604981,1.105469 1.290527,1.264649 0.104493,0.02588 0.209961,0.07861 0.289063,0.130859 -0.210449,0.105469 -0.394531,0.315918 -0.710938,0.526855 -0.947754,0.658204 -1.290039,-0.02685 -2.000488,1.237793 -0.05322,0.104981 -0.105469,0.184571 -0.18457,0.289063 -1.0532234,1.053711 -1.2636724,-0.07861 -2.9233404,-0.209961 -1.210449,0.02588 -1.210449,-0.185059 -2.1582029,-0.290528 -1.0268555,-0.105468 -1.1845703,0.369141 -2.1064453,0.580078 -1.0004883,0.236329 -0.6586914,0.815918 -1.605957,1.368165 -1.31640629,0.790527 -2.44873049,2.870117 -0.1845703,3.187011 1.9223633,0.236328 0.9741211,0.02588 2.6069336,0.920899 0.1577148,0.0791 2.5014649,1.027343 2.5278319,1.027343 0.841797,0.21045 2.07959,-0.290527 3.053711,-0.395996 1.3168954,-0.104492 2.0800784,-0.104492 2.9228524,-1.184082 0.341796,-0.448242 1.000488,0.31543 1.632324,0.552735 1.000488,0.395019 3.554199,0.500488 4.52832,-0.131836 0.763672,-0.5 0.658691,-0.5 1.57959,-0.921875 0.710937,-0.341797 1.238281,-0.631348 1.843262,-1.158203 0.921875,-0.604981 1.606445,-0.341797 2.607421,-0.02588 0.289063,0.104492 0.5,0.209961 0.789551,0.342285 0.394532,0.184082 0.631348,0.368164 1.000489,0.605469 0.605468,0.421386 1.237304,0.526855 1.974609,0.553222 0.711426,0.05225 1.316406,-0.210449 2.053711,-0.210449 0.552734,0 1.000488,0.131348 1.526855,0.184082 0.605957,0.05225 0.895508,-0.632324 1.711915,-0.448242 0.342285,0.05225 0.421386,0.105469 0.763671,0 0.07861,0 0.131836,-0.02637 0.184082,-0.02637 0.709961,0.895019 1.343262,1.816894 2.053711,2.712402 0.394532,0.473633 0.763184,0.868652 1.184571,1.315918 0.763671,0.790039 2.18457,1.422363 3.081054,1.922363 1.290039,0.710938 1.763672,0.921875 2.922852,2.132325 0.31543,0.474609 0.762695,1.422363 1.105469,2.000976 1.448242,2.291504 2.737793,3.686035 5.186035,4.923828 2.000976,1.211914 2.896484,3.449707 3.949219,5.450684 0.605468,1.18457 1.552734,2.790527 1.738281,4.080566 0.420898,3.027832 0.263672,2.712403 1.605469,5.477051 0.790039,1.605469 1.237304,2.47461 1.18457,4.317871 -0.07813,1.65918 -0.07813,4.555664 0.422852,7.056153 h 3.527343 c -0.05273,-0.447266 -0.131835,-0.868653 -0.18457,-1.263672 -0.158203,-1.263672 -0.420898,-2.342774 -0.526367,-3.660157 -0.130859,-1.342285 -0.395508,-2.421875 -0.474609,-3.791504 -0.13086,-2.474121 -0.499024,-2.290039 -1.605469,-4.291503 -1.106446,-2.000489 0.974609,-3.686524 1.605469,-5.291993 0.290039,-0.737304 -1.684571,1.631836 -1.763672,1.710938 -1.158203,1.185547 -0.894532,-0.604981 -1.027344,-1.526367 -0.472656,-3.080567 -1.052735,-4.265137 -3.053711,-6.661621 -0.5,-0.578614 -0.895508,-1.210938 -1.263672,-1.869141 -0.210937,-0.342773 -0.419922,-0.737793 -0.631836,-1.105957 2.580078,-1.895996 2.869141,-2.316895 6.029297,-2.949219 0.948242,-0.184082 2.34375,-0.368164 3.291992,-0.790039 0.5,-0.236816 0.947266,-0.473144 1.473633,-0.763672 0.947266,-0.552734 1.895508,-1.158691 2.871094,-1.710937 0.683594,-0.39502 1.157226,-0.868653 1.841797,-1.316895 1.106445,-0.709961 0.973633,-0.763183 1.764648,-1.868652 0.658203,-0.89502 1.816406,-1.685059 2.581055,-1.843262 0.420898,-0.105469 0.81543,-0.158691 1.210937,-0.211426 0.868164,-0.131347 0.603516,-0.289062 1.499024,-0.10498 0.264648,0.05273 1.633789,0.10498 1.922851,0.131836 2,0.18457 2.632813,0.105469 4.50293,-0.736817 0.551758,-0.237304 0.709961,-0.580078 0.842773,-1.079589 0.158204,-0.553223 0.0791,-0.869141 0.289063,-1.500977 0.237305,-0.632324 0.210937,-0.76416 0.552734,-1.395508 0.185547,-0.316406 -0.210937,-0.237305 -0.606445,0.948242 l -0.05273,0.236817 -0.05078,0.10498 c -0.370117,-0.868652 -0.844726,-0.710937 -0.974609,-1.895507 -0.420898,-1.447754 -1.395508,-1.053223 -1.84375,-1.764161 -0.208984,-0.315918 0.132812,-1.342773 0.578125,-1.290039 0.264648,0 0.895508,0.341797 1.160156,0.446778 1.106446,0.632324 1.106446,1.080566 1.790039,1.580078 0.421875,0.28955 0.683594,-0.05225 1.290039,-0.184082 1.081055,-0.421875 0.816407,-1.580078 1.738282,-1.342774 0.815429,0.237305 0.606445,1.185059 2.394531,0.790039 1.52832,-0.342773 3.503906,-0.552734 2.15918,-2.632812 C 90.70766,25.11377 89.154926,25.11377 87.918598,23.796876 86.916645,22.743653 85.8102,21.980958 84.3102,21.795899 82.993793,21.637696 83.388325,21.664551 82.204731,21.138184 80.914692,20.584962 79.227192,21.059574 77.990864,19.7417 l -0.472657,-0.472656 c -1.027344,-0.97461 -1.896484,-0.210938 -3.423828,-0.47461 -1.791015,-0.315918 -2.053711,-0.473633 -3.84375,0.47461 -0.500976,0.262695 -1.685547,1.105468 -2.264648,0.815918 -0.921875,-0.474121 -0.658203,-1.816407 -2.842774,-1.15918 -0.553711,0.185058 -0.65918,0.15918 -1.15918,-0.158203 z m -48.604004,9.926758 c 0.39502,-0.131836 0.631836,-0.184571 1.131836,0.211425 0.131836,0.104981 0.421387,0.394532 0.57959,0.394532 0.289551,-0.02637 0.526367,-0.131836 0.737305,-0.289551 0.10498,0.157715 0.210449,0.31543 0.342285,0.552734 0.236816,0.421387 0.394531,0.684571 0.605957,1.131836 -0.421875,-0.0791 -0.632324,-0.236816 -0.895508,-0.683594 -0.316406,-0.527343 -0.974121,0.13086 -1.658691,-0.369629 -0.369141,-0.262695 -0.658204,-0.578613 -0.842774,-0.947753 z m 11.137695,3.949218 c -0.237304,0.237793 -0.685058,0.158692 -1.000976,0.132813 -0.420899,-0.05371 -1.132324,-0.08008 -1.526856,0.157715 0.02588,0.02637 0.868653,0.210449 1,0.262695 0.237793,0.0791 0.474121,0.184082 0.711426,0.289551 0.789551,0.395019 1.079102,0.763672 2.027344,0.842285 0.790039,0.05322 1.316406,0.07959 1.000488,-0.815918 -0.263183,-0.710449 -0.710937,-1.342285 -0.658203,-2.132813 0.05273,-0.815918 0.31543,-1.342285 0.815918,-2.027343 0.39502,-0.525879 0.526856,-0.868653 0.658203,-1.342286 -0.02588,-0.02637 -0.05225,-0.05273 -0.07861,-0.105468 -0.05273,-0.05225 -0.105957,-0.132325 -0.18457,-0.210938 -0.842285,-1.263672 -1.105469,-1.026855 -2.15918,-0.210449 -1.105957,0.816406 -1.342773,-1.158203 -4.317383,0.36914 -0.816894,0.447266 -1.053711,0.236817 -1.84375,0.709961 -1.895508,1.210938 -1.763672,-0.525879 -2.685547,0.131836 -0.342285,0.237793 -0.263183,0.132324 0.131836,0.737305 0.263672,0.421387 0.579102,0.948242 0.842285,1.316406 0.685059,-0.02637 1.053711,-0.421386 1.527344,-0.05273 1.210938,0.974121 2.738282,-0.683594 2.791016,-0.631348 0.631836,0.552246 1.527344,-0.763672 2.633301,-0.57959 1.079101,0.184082 0.920898,0.02588 1.658203,0.974121 0.18457,-0.158203 -0.0791,0.31543 -0.209961,0.448243 -0.685547,0.709961 -0.474121,0.447265 -0.895508,1.421386 -0.0791,0.157716 -0.104981,0.184083 -0.236817,0.31543 z m 56.870606,1.291016 c 0,0.07861 0,0.157715 -0.02637,0.262695 -0.05274,0.447266 -0.184571,1.131836 -0.736328,1.421387 -1.027344,0.500488 -2.15918,0.790039 -3.133789,0.737793 -0.31543,-0.02637 -2.764649,-0.184082 -2.841797,-0.341797 -0.185547,-0.289551 0.550781,-1.185059 0.841797,-1.396484 0.630859,-0.447266 0.893554,-0.552246 1.473632,-1.105469 0.235352,-0.236817 0.526368,0.658203 1.607422,0.342773 0.418946,-0.10498 0.418946,-0.132812 0.869141,-0.132812 0.445312,0.02783 0.498047,0.05371 0.920898,0.185547 0.31543,0.07861 0.761719,0.210449 1.025391,0.02637 z m -2.65918,-5.845215 c -0.709961,-0.26416 -0.315429,2.39502 0,0.210449 0.02637,-0.0791 0.05274,-0.131836 0,-0.210449 z m -15.40332,5.370606 c -1.078125,1.158203 -2.158203,1.527343 -2.869141,2.975097 -0.447265,0.895508 -0.816406,1.711914 -1.316406,2.607422 -0.131836,0.262695 -0.288086,0.499024 -0.447265,0.736817 -0.105469,0.158203 -0.185547,0.28955 -0.264649,0.421386 -0.209961,0.289063 -1.31543,1.685059 -0.920898,1.790528 0.316406,0.07861 0,0.262695 -0.02637,0.578613 0.104492,0.421875 1.159179,0.474121 1.55371,0.474121 0.711915,0 2.053711,-0.632324 2.844727,-1.000488 0.762695,-0.394043 1.341797,-0.552735 2.079102,-0.842286 1,-0.421386 1.36914,-0.447265 2.448242,-1.263671 1.079101,-0.842774 0.763672,-0.580079 1.68457,-1.65918 1.6875,-1.790527 2.211914,-1.632324 4.317383,-2.105957 1.396484,-0.289551 1.738281,-1.263672 3.001953,-2.027832 2.422852,-1.421875 0.50293,-0.710449 0.02832,-0.815918 -0.841797,-0.158203 -0.841797,-1.237793 -2.974609,-1.447754 -1.34375,-0.132813 -1.660156,-0.658691 -2.791992,-0.790039 -1.133789,-0.104981 -0.737305,-0.184082 -1.817383,0.31543 -0.974609,0.474609 -1.790039,0.76416 -2.817383,1.079589 -0.790039,0.236817 -1.105469,0.421387 -1.711914,0.974122 z m 3.423828,-2.237793 c -0.527344,-0.02637 -1.211914,0.473632 0,0 z M 58.060199,29.089844 c -0.15918,0.02637 -0.289063,0.05225 -0.448242,0.07861 -1.027344,0.263183 -0.684571,0.68457 -1.316407,1.053222 l -0.262695,0.131836 c -0.579101,0.289063 -1.660156,0.500489 -2.054687,1.184571 l -0.05176,0.105468 c -0.210938,0.763184 0.02637,1.132813 0.368164,1.448243 0.316406,0.262695 0.579102,0.446777 0.921875,0.60498 0.552734,0.263672 1,0.474121 1.394531,0.974121 0.342774,0.448242 0.842774,0.974121 1.106446,1.501465 0.473632,1.000488 0.20996,2.895996 1.36914,3.027344 0.526367,-0.131348 1.895508,-2.342774 2.211914,-2.843262 0.920899,-1.474121 1.527344,-1.685547 2.896485,-2.712402 0.815429,-0.631348 1.580078,-1.5 2,-2.474121 0.316406,-0.737793 -1.368164,-0.02686 -1.631836,0 -0.869141,0.02588 -0.500977,-1.07959 -1.975586,-1.000977 -1.761719,0.105469 -1.131836,-0.921387 -2.369141,-1.606445 -0.526367,-0.289063 -0.261718,-0.184082 -0.894531,0.0791 -0.448242,0.210938 -0.790039,0.342774 -1.263672,0.448242 z m 1.631836,-1.948242 c 0.789062,-0.895508 0.762695,-0.184082 -0.341797,-0.790039 -0.368164,0.552734 -0.31543,0.341797 -0.553711,0.605957 -0.02539,0 -0.789062,1.526367 -0.789062,1.552246 0.05273,0.316895 1.473632,-0.236328 1.658203,-0.31543 -0.289063,-0.395019 -0.262696,-0.658691 0.02637,-1.052734 z m 4.739258,-10.953125 c -0.683594,0.604492 -1.526367,1.052735 -2.421875,0.868652 -0.65918,-0.105957 -0.606446,-0.342773 -0.632813,-0.974121 -0.02637,-0.526855 -0.07813,-0.921875 -0.07813,-1.26416 0.448242,-0.05273 1.105469,0.157715 2.210938,1.026367 0.34375,0.264161 0.580078,0.369629 0.921875,0.343262 z m -3.553711,-1.211914 v 0.07861 c 0,0.08008 0,0.185547 0.02637,0.264161 0.05176,1.473632 0.07813,1.974609 -0.449219,3.291015 -0.104492,0.289063 -0.262695,0.579102 -0.446289,0.868653 0,-0.157715 -0.02637,-0.31543 -0.131836,-0.499512 -0.291015,-0.500977 -0.210937,-0.47461 -0.237305,-1.027832 -0.20996,-1.421387 -0.920898,-0.894531 -1.868164,-2.000977 -0.711914,-0.815429 -0.370117,-0.368164 -0.817382,-1.368652 -0.473633,-1.131836 -2.317383,-0.974609 -3.528321,-1.447754 -1.711914,-0.685059 -2.290039,-2.001465 -4.211914,-0.974121 -1.554687,0.868164 -2.580566,-0.816895 -2.895996,0.604492 -0.18457,0.869629 -0.553711,1.132324 -1.131836,1.738281 0.0791,-0.28955 0.736328,-1.658691 0.525391,-1.842773 -0.578125,-0.5 -0.762695,-1.185059 -1.658203,-1.211426 -0.789551,0 -1.053711,-0.210449 -1.631836,-0.262695 -0.685547,-0.08008 -0.473633,1.368652 -2.001465,1.236816 l -0.448242,-0.05225 c -0.631348,-0.158203 0,-0.553711 -1.131836,0.394043 -1.921387,1.580566 -0.578613,-1.394531 1.106445,-1.052734 1.474121,0.289062 0.841797,0.05273 1.737305,-0.895508 0.526855,-0.499512 1.290527,0 1.974609,0.05273 1.711426,0.0791 1.790528,0.869141 2.185059,0.921387 0.18457,0.02637 0.948242,-0.07861 1.474121,-0.02588 1.369141,0.157715 0.895508,0.342773 2.080078,-0.315918 1.211914,-0.632324 2.185547,-0.315918 3.080078,0.552246 1.660156,1.554199 4.424805,0.395508 5.055664,2.607422 0.158203,0.552734 0.420899,0.842285 0.842774,1.263672 0.131836,0.130859 1.157226,0.157227 1.395507,0.130859 0.47461,-0.10498 0.657227,-0.736328 1.106446,-1.026367 z M 37.81264,13.001954 c -0.0791,0.658203 -0.605957,0.526855 -1.185058,0.395019 -1.18457,-0.289551 -1.158203,-0.579101 -2.316406,-0.368652 -1.053711,0.18457 -0.684571,-0.868164 1.026855,-0.605469 0.236816,0.02637 0.420898,0.0791 0.658691,0.157715 0.974122,0.342285 0.736329,0.210449 1.631836,0.289551 0.131348,0 0.157715,0.02637 0.184082,0.131836 z m 6.951172,1.316894 c -0.473632,0.974121 -0.237304,1.158203 -0.447265,1.895996 -0.0791,0.31543 -1.053223,0.446778 -1.369629,0.420411 -0.341797,0 -0.684571,-0.07861 -1.027344,-0.104981 -0.104981,-0.763672 -0.07764,-0.605957 0.605957,-0.527344 2.000977,0.26416 1.395508,-1 2.449219,-2.237793 0.290039,-0.341797 -0.185547,0.527344 -0.210938,0.553711 z m -3.291015,1.605469 c 0,0.10498 0,0.211426 0,0.316406 0,0.105469 0.02637,0.210449 0.02637,0.289551 h -0.02637 l -0.105469,0.02637 c -0.158692,0 -0.316406,0.05225 -0.474121,0.07861 -1.027344,0.315918 -1.07959,0.474609 -2.185547,0.448242 -1.315918,0.0791 -1.210449,0.947754 -1.974609,1.5 -0.131348,0.07959 -0.236329,-0.763184 0.263183,-1.289551 l 0.237305,-0.236816 c 0.921875,-0.947754 1.553223,-0.342774 2.712402,-0.737305 0.263184,-0.104981 0.473633,-0.184082 0.736817,-0.263184 0.210449,-0.05371 0.368164,-0.07959 0.579101,-0.105957 l 0.131836,-0.02637 h 0.0791 z m -5.581543,3.160645 c -0.368653,0.184082 -0.974121,-0.237793 -1.26416,-0.47461 0.631347,0.02637 0.974121,0 1.527343,-0.341797 0,0.184082 -0.10498,0.710938 -0.263183,0.816407 z m 6.79248,10.45166 c 0,1.158691 -0.07861,2.237793 -0.02637,3.423828 0,0.31543 0.05225,0.631347 0.07861,0.974121 0.02686,0.184082 0.05322,0.368164 0.08008,0.552246 0.05225,0.395508 0.473633,2.34375 0,2.34375 -0.36914,-0.02588 -0.158691,0.289551 -0.316406,0.657715 -0.316894,0.448242 -1.501465,0.184082 -1.922363,0.07861 C 39.840961,37.356934 38.734515,36.22461 38.075336,35.54004 37.470843,34.855958 36.9435,34.512696 36.31264,33.934571 35.443011,33.144532 35.074847,33.012696 34.390277,31.748047 33.678851,30.432129 33.837054,30.854004 33.46889,29.300294 33.336566,28.799317 33.152484,28.352051 32.91518,27.95752 c 0.895507,-0.10498 0.763671,-0.710937 2.395507,-0.631836 1.316895,0.05225 1.238282,-0.658691 0.421875,-1.475586 -0.57959,-0.630859 -0.499511,-0.604492 -0.947754,-1.210449 -0.842285,-1.18457 -2.26416,-0.368164 -2.817382,-1.816894 -0.158204,-0.420899 -0.526368,-0.631348 -0.89502,-0.895508 -0.105469,-0.525879 -0.421387,-1.000488 -0.921387,-1.290039 -0.237304,-0.157715 -0.421386,-0.262696 -0.605957,-0.394043 0.605957,0.131347 1.000977,0.209961 1.632813,0.289551 2.238281,0 1.658691,-1.580567 2.922852,-1.869629 0.657714,0.815918 0.816406,0.342285 0.130859,0.605957 -0.658203,0.262695 -0.684082,1.447754 -2.237305,1.816406 0.947266,0.605469 0.736817,0.948242 1.184571,1.290039 0.315918,0.263184 2.658691,0.842773 3.186035,0.842773 1.316406,0 1.026855,0.02588 2.290527,0.341797 1.185547,0.263184 1.737793,-0.07861 2.447754,1.448243 0.290527,0.631835 0.422363,1.105957 0.76416,1.763671 0.553711,1.053223 0.763672,1.527832 0.816406,2.764649 z M 28.992328,20.243165 c 0.289551,0.289551 0.605957,0.578125 0.895508,0.763672 0.315429,0.210449 0.552246,0.420898 0.710937,0.630859 -1.158691,-0.604492 -2.370117,-0.816406 -3.607422,-0.604492 l -0.05273,-0.08008 c 0.711426,0.132324 1.263672,-0.552247 2.053711,-0.709961 z m -2.606445,0.394043 c 0.02588,0.158203 0.07861,0.315918 0.131835,0.474609 -0.185058,0.05225 -0.36914,0.105469 -0.579589,0.157715 -0.605957,0.184082 -0.763672,0.131836 -1.368653,0.158203 -1.580078,0.184082 -0.579589,0.842285 -1.895996,1.553711 -0.553222,0.289551 -0.737793,-0.02637 -1.159179,-0.474121 -0.394532,-0.447754 -0.368165,-0.869629 -0.236329,-1.447754 0.105469,0.05225 0.236329,0.07861 0.342286,0.07861 1.395019,0.157715 1.553711,-1.079101 2.132324,-1.790527 0.157715,-0.158203 0.237305,-0.210449 0.447754,-0.289551 0.921875,-0.290527 1.395508,0.710449 1.922363,1.316406 0.0791,0.104981 0.157715,0.184082 0.263184,0.262696 z m 30.015136,2.633789 c -0.237304,0.236328 -0.420898,0.5 -0.605469,0.816406 -0.05273,0.05225 -0.08008,0.10498 -0.106445,0.157715 -0.02637,0.07861 -0.0791,0.184082 -0.130859,0.289062 -0.316406,-0.10498 -0.579102,-0.236816 -0.817383,-0.315918 0.107422,0.342774 0.318359,0.579102 0.553711,0.790039 -0.02637,0.02686 -0.05273,0.07959 -0.07813,0.105469 -0.553711,0.289551 -1.553711,-0.500488 -1.948242,-0.895508 -0.368164,-0.342773 -0.47461,-1.236816 -0.263672,-1.210449 0.84375,0.210449 0.762695,0.289551 1.527344,-0.07861 0.605468,-0.290528 1.183593,0.184082 1.86914,0.341797 z m -4.291992,4.106933 c 0.158203,0.421387 0.368164,0.711426 0.552734,1.053223 -0.236328,0.07861 -0.474609,0.131348 -0.736328,0.184082 -0.710937,0.131348 -1.316406,0.237305 -2,0.685059 -0.607422,0.420898 -1.449218,0.868652 -2.002929,1.395019 -1.07959,1.026856 -1.815918,3.265137 -3.158692,3.055176 -0.473633,-0.316406 -0.737304,-3.291992 -0.816406,-3.949707 -0.184082,-1.975586 -0.737793,-2.396485 -1.631836,-3.976563 -0.02637,-0.0791 -0.921875,-2.000976 -0.500977,-1.552734 0.710938,0.736816 1.026856,0.02588 1.975586,0.632324 L 44.131,25.166504 c 1.001953,0.816895 1.791015,0.394532 2.923828,0.420899 1.07959,0.02637 1.552246,-0.31543 1.841308,-1.290039 0.342774,-1.079102 1.817383,-0.553223 2.449219,-0.553223 0.527344,0 0.263672,0.26416 0.263672,0.842773 -0.02637,1.079102 0.157227,1.790528 0.5,2.791016 z m 7.214844,-5.766113 c -0.262695,0.605957 -0.711914,1.053223 -1.290039,1.343262 -0.210938,0.184082 -0.421875,0.368164 -0.632813,0.578613 -0.289062,0.315918 -0.578125,0.711426 -0.816406,1.132324 h 0.02637 c 1.475586,-0.210449 2.580078,-1.026855 3.001953,-2.448242 0.105469,-0.395996 0.34375,-0.685059 0.473633,-1.07959 0.105469,-0.263672 0.15918,-0.526855 0.131836,-0.763672 -0.261719,0.446778 -0.579101,0.842774 -0.894531,1.237305 z M 31.52016,27.535645 c -0.0791,-0.02588 -0.185059,-0.02588 -0.263672,0 -0.394531,0.184082 -0.763184,1.026856 -1.368652,0.737793 -0.105469,0.368164 -0.237305,0.710938 -0.500977,1.105957 -0.5,0.710938 -0.762695,1.052735 -0.789062,1.948242 -0.02686,0.684571 0.394531,1.420899 0.895019,1.922364 0.5,0.500488 0.763184,0.579101 1.500488,0.526367 0.869141,-0.05371 1.237305,-0.02588 2.053711,-0.316406 0.263184,-0.105469 0.500489,-0.236817 0.763672,-0.289551 -0.184082,-0.31543 -0.368164,-0.631836 -0.57959,-0.947754 -0.78955,-1.158203 -0.60498,-1.18457 -0.868652,-2.712402 -0.105469,-0.710938 -0.447754,-1.420899 -0.842285,-1.97461 z m 22.958984,-1.026367 -0.02637,0.157715 c -0.158203,0.842773 -0.552734,1.211426 -1.053711,1.474609 -0.07813,-0.157715 -0.183594,-0.289062 -0.263672,-0.447754 -0.736328,-1.132324 -1.316406,-3.212402 -0.815429,-4.52832 0.368164,0.657715 -0.184571,0.709961 0.895507,1.68457 0.632813,0.526856 1.079102,0.790039 1.263672,1.65918 z M 47.15932,43.017579 c -0.762695,-2.580567 -1.658203,-3.791016 -0.762695,-6.477051 0.07813,-0.157715 0.130859,-0.315918 0.183594,-0.447266 0.395507,-0.895019 0.474609,-0.948242 0.947753,-1.659179 0.368165,-0.578614 0.763672,-1.07959 1.158204,-1.605469 1.342773,-1.76416 1.239257,-1.106445 2.659179,-1.921875 0.553711,-0.342774 1.106446,-0.526856 1.65918,-0.816406 0,0.315429 0,0.60498 0,0.895507 -0.05176,1.71045 -0.369141,2.132325 0.472656,3.264161 0.396485,0.526855 0.921875,0.842773 1.344727,1.316406 0.84082,0.947754 1,0.421875 1.420898,2.053711 0.132813,0.500488 0.237305,1.000488 0.341797,1.500976 0.0791,0.658203 0.132813,0.711426 0.106445,1.474121 0,0.132325 0,0.263672 -0.02734,0.395508 -0.341797,2.185059 -1.447266,3.054199 -2.948243,4.581543 -0.131835,0.131348 -1.290039,1 -1.448242,0.974121 -0.08008,0 -0.921875,-0.579589 -1.870117,-0.68457 -1.341797,-0.158203 -1.658203,-0.632324 -2.447266,-1.711914 -0.291015,-0.368164 -0.527343,-0.76416 -0.790527,-1.132324 z m 6.688965,-13.454102 c 1.183594,-0.921875 1.157226,-1.553222 1.947265,-3.370117 0.0791,-0.157715 0.158204,-0.31543 0.237305,-0.474121 v 0 c -0.02539,0.158691 -0.0791,0.368652 -0.158203,0.605957 -0.131836,0.314941 -0.211914,0.473144 -0.185547,0.763183 0.02637,0.473633 0.211914,0.710938 0.47461,0.974122 0.237304,0.237304 0.527343,0.605468 0.420898,1.132324 -0.0791,0.236816 -0.183594,0.394531 -0.341797,0.605957 -0.235352,0.236816 -0.527344,0.289551 -0.762695,0.368164 -0.394531,0.131348 -1.422852,0.447265 -1.580078,0.105469 -0.05176,-0.131836 -0.05176,-0.500977 -0.05176,-0.710938 z m 2.420898,-3.580078 c 0.47461,0.499023 0.710938,0.472656 1.553711,0.184082 0.158203,-0.07959 0.290039,-0.105469 0.420899,-0.131836 0.18457,0.842285 0,1.842774 -0.658203,2.474121 -0.158204,0.105469 -0.236329,0.07959 -0.341797,0.02637 -0.238282,-0.157714 -0.368164,-0.473632 -0.580078,-0.683593 -0.262696,-0.26416 -0.578125,-0.421875 -0.63086,-0.97461 -0.02539,-0.290039 0.13086,-0.552734 0.236328,-0.894531 z m 2.791993,0.209961 c -0.15918,0.158203 -0.475586,-0.263184 0,0 z"
     id="path1" /></svg>
