<?xml version="1.0" encoding="UTF-8" standalone="no"?>
<svg
   viewBox="0 0 64 64"
   enable-background="new 0 0 64 64"
   version="1.1"
   id="svg7"
   sodipodi:docname="shrug.svg"
   inkscape:version="1.3 (0e150ed6c4, 2023-07-21)"
   xmlns:inkscape="http://www.inkscape.org/namespaces/inkscape"
   xmlns:sodipodi="http://sodipodi.sourceforge.net/DTD/sodipodi-0.dtd"
   xmlns="http://www.w3.org/2000/svg"
   xmlns:svg="http://www.w3.org/2000/svg">
  <defs
     id="defs7" />
  <sodipodi:namedview
     id="namedview7"
     pagecolor="#ffffff"
     bordercolor="#ffffff"
     borderopacity="1"
     inkscape:showpageshadow="0"
     inkscape:pageopacity="0"
     inkscape:pagecheckerboard="1"
     inkscape:deskcolor="#ffffff"
     inkscape:zoom="18.328125"
     inkscape:cx="32"
     inkscape:cy="32"
     inkscape:window-width="3440"
     inkscape:window-height="1369"
     inkscape:window-x="3432"
     inkscape:window-y="-8"
     inkscape:window-maximized="1"
     inkscape:current-layer="svg7" />
  <path
     d="m53.016 44.787c.027-1.497-.033-2.916-.234-4.159v-18.901c0-16.669-11.248-16.357-11.248-16.357s-.846-3.37-9.533-3.37c-13.444 0-20.781 8.512-20.781 19.727v18.901c-.202 1.243-.263 2.662-.234 4.159-5.737.705-11.843-.828-7.532 3.152 1.745 1.612 4.797 2.053 7.608 2.053.109 0 .216-.003.325-.004.766 6.161 2.34 12.012 2.34 12.012h36.547c0 0 1.574-5.851 2.34-12.012.109.001.217.004.326.004 2.811 0 5.863-.44 7.607-2.053 4.31-3.98-1.795-2.447-7.531-3.152m-35.334-11.558c0 0-3.116-.249-3.908-4.732-.622-3.548 1.513-4.554 1.513-4.554 7.713-3.943 19.301-14.37 19.301-14.37s5.412 5.427 11.619 8.916c0 0 2.398.028 3.053 3.75.793 4.483-2.168 5.804-2.168 5.804 1.154 6.771-6.494 16.53-12.018 17.504-.369.065-.764.098-1.176.098-5.734 0-15.102-6.106-16.216-12.416m-6.62 15.763c-3.269 0-5.665-.618-6.93-1.787-.524-.484-.808-.812-.961-1.02.669-.133 2.034-.148 3.083-.16 2.086-.023 4.683-.055 7.025-.636 1.693-.421 3.28-.644 4.589-.644 2.111 0 3.439.549 3.946 1.632.699 1.494.995 2.46 1.118 3.04h-4.466v-.018l.056-1.286-1.26.264c-.028.008-2.965.615-6.2.615m5.319 12.008h-1.883c-.685-2.672-1.589-6.879-2.115-11.039 2.807-.127 5.086-.604 5.086-.604l-.014.323h-.39l-.684 11.32m1.001 0l.624-10.319h5.859l.956 10.319h-7.439m8.444 0l-1.049-11.319h-.785c-.079-.649-.369-1.798-1.271-3.727-.803-1.716-2.805-2.208-4.852-2.208-1.863 0-3.764.408-4.83.673-.351.087-.71.16-1.072.224-.062-3.282.352-6.023 1.643-7.201.798-.729 1.956-1.098 3.443-1.098.232 0 .478.03.719.049 2.946 5.526 10.73 10.252 16.127 10.252.473 0 .928-.039 1.35-.113 3.928-.691 8.584-5.121 11.107-10.15.197-.014.4-.037.594-.037 1.486 0 2.645.369 3.443 1.098 1.289 1.178 1.703 3.919 1.643 7.201-.363-.063-.721-.137-1.072-.224-1.066-.265-2.967-.673-4.83-.673-2.049 0-4.051.492-4.854 2.208-.902 1.929-1.191 3.077-1.27 3.727h-.785l-1.049 11.318h-12.35m13.354 0l.955-10.319h5.859l.623 10.319h-7.437m10.322 0h-1.883l-.684-11.319h-.391l-.014-.323c0 0 2.279.477 5.086.604-.524 4.159-1.428 8.367-2.114 11.038m10.367-13.795c-1.266 1.169-3.662 1.787-6.93 1.787-3.227 0-6.174-.607-6.203-.614l-1.26-.263.057 1.285v.018h-4.465c.123-.58.418-1.546 1.117-3.04.506-1.083 1.834-1.632 3.947-1.632 1.309 0 2.895.223 4.588.644 2.342.581 4.939.612 7.025.636 1.049.012 2.414.027 3.084.16-.151.208-.436.535-.96 1.019"
     id="path1" />
  <path
     d="m28.642 40.94c0 0 2.18-1.907 5.223-2.444 3.055-.537 5.703.518 5.703.518.072-.082.102-.193.084-.289-.127-.717-2.863-1.773-5.963-1.227-3.096.545-5.377 2.491-5.249 3.209.018.106.093.184.202.233"
     id="path2" />
  <path
     d="m18.146 23c0 0 1.986-.642 4.542-.796 2.563-.155 4.631.24 4.631.24.066-.062.104-.147.098-.228-.037-.603-2.189-1.21-4.791-1.053-2.6.157-4.666 1.024-4.626 1.626.006.09.057.159.146.211"
     id="path3" />
  <path
     d="m34.205 20c0 0 1.713-1.218 4.115-2.141 2.387-.917 4.459-1.159 4.459-1.159.061-.084.08-.167.047-.251-.215-.563-2.453-.496-4.883.439-2.432.937-4.139 2.382-3.924 2.942.028.077.098.142.186.17"
     id="path4" />
  <path
     d="m33.49 36.355c.691-.122 3.641-.946 3.461-1.969-.09-.51-7.407 1.236-7.407 1.236.182 1.024 3.248.857 3.946.733"
     id="path5" />
  <path
     d="m39.48 21.462c-.596.167-1.182.431-1.689.801-.496.379-.932.829-1.26 1.336-.672 1.006-1.023 2.141-1.148 3.285.561-1.001 1.121-1.969 1.834-2.755.02-.023.043-.042.064-.065-.08.358-.094.738-.025 1.122.275 1.55 1.756 2.583 3.301 2.307 1.551-.275 2.584-1.751 2.309-3.303-.145-.807-.617-1.467-1.256-1.882.344-.009.693-.009 1.047-.005.434.084.861.193 1.264.33l.053.018.006.001c.385.085.623.255.717.583.102.337.02.787-.1 1.211-.127.43-.311.856-.518 1.275-.221.408-.439.836-.771 1.17.434-.227.738-.624 1.049-.992.307-.379.572-.792.783-1.25.201-.456.371-.967.285-1.569-.045-.299-.205-.613-.447-.829-.02-.02-.045-.029-.068-.046.514-.095 1.059-.288 1.344-.729-.496.306-1.043.289-1.578.225-.537-.057-1.084-.176-1.648-.261-1.12-.187-2.335-.287-3.548.022"
     id="path6" />
  <path
     d="m20.449 28.151c.275 1.55 1.752 2.582 3.302 2.307 1.547-.274 2.583-1.751 2.308-3.302-.068-.384-.212-.736-.41-1.045.028.015.056.024.084.039.938.494 1.798 1.21 2.67 1.957-.512-1.03-1.232-1.975-2.209-2.688-.484-.363-1.045-.636-1.643-.821-.604-.173-1.244-.219-1.862-.17-1.245.126-2.353.639-3.336 1.196-.5.274-.972.574-1.459.813-.48.243-.987.447-1.559.331.421.317.998.311 1.513.223-.016.024-.035.042-.049.067-.153.286-.195.637-.135.932.126.596.461 1.017.81 1.375.353.358.745.654 1.163.905.419.238.842.506 1.328.569-.43-.198-.782-.525-1.129-.833-.337-.323-.658-.659-.925-1.019-.257-.358-.489-.752-.511-1.104-.023-.34.143-.58.474-.793l.004-.004.044-.035c.331-.268.695-.517 1.073-.745.331-.126.659-.245.985-.355-.456.61-.674 1.393-.531 2.2"
     id="path7" />
  <path
     style="fill:#ffffff;stroke:#000000;stroke-width:0.109122"
     d="M 32.845695,45.551782 C 29.355915,45.150792 24.8192,42.800641 21.696993,39.776428 19.601165,37.746379 18.321117,35.739835 17.817309,33.694813 l -0.12013,-0.487626 -0.319814,-0.07263 c -0.675198,-0.153346 -1.49905,-0.6559 -2.03303,-1.240159 -1.041221,-1.139262 -1.707859,-3.112464 -1.632527,-4.832161 0.01643,-0.375107 0.06868,-0.829327 0.116098,-1.009378 0.20177,-0.766078 0.744858,-1.599302 1.268273,-1.945828 0.114493,-0.0758 0.539627,-0.316823 0.944742,-0.535605 0.405115,-0.218784 1.037067,-0.578608 1.404337,-0.79961 0.367271,-0.221002 0.679486,-0.401822 0.693812,-0.401822 0.01433,0 -0.02281,0.08281 -0.08253,0.184017 -0.0859,0.145597 -0.09719,0.213946 -0.05407,0.327366 0.02998,0.07884 0.07497,0.143349 0.09999,0.143349 0.02502,0 0.3755,-0.08498 0.778844,-0.188842 1.535537,-0.395406 2.82235,-0.569405 4.527428,-0.612184 1.303921,-0.03271 2.387894,0.02242 3.393024,0.172567 0.544924,0.0814 0.642398,0.05682 0.642398,-0.161998 0,-0.323339 -0.586534,-0.653583 -1.545758,-0.870328 -1.973751,-0.445985 -4.746564,-0.265599 -6.596089,0.42911 -0.276671,0.103922 -0.510409,0.181578 -0.519417,0.17257 -0.009,-0.009 0.205651,-0.157132 0.477022,-0.329165 3.220061,-2.041325 8.991386,-6.50771 13.711759,-10.611428 0.744482,-0.647225 1.41248,-1.2237452 1.484441,-1.2811562 l 0.130836,-0.1043835 0.580055,0.5408707 c 2.342855,2.184591 4.409603,3.887632 7.06531,5.821954 0.133271,0.09707 0.131644,0.0976 -0.220384,0.07184 -1.333568,-0.09761 -3.401567,0.413484 -5.15601,1.274269 -1.024363,0.502584 -1.701647,0.938098 -2.253477,1.449056 -0.43767,0.405253 -0.626239,0.708523 -0.60049,0.965748 0.0323,0.322676 0.140438,0.309267 0.786155,-0.09748 0.750873,-0.472985 2.378192,-1.308594 3.160526,-1.622892 1.298743,-0.521763 2.983311,-1.005446 4.226979,-1.213676 0.526954,-0.08823 0.668959,-0.148923 0.722211,-0.308677 0.0093,-0.02781 0.348345,0.169069 0.753503,0.437505 1.38782,0.919494 2.458344,1.531856 2.782387,1.591582 0.660996,0.121831 1.447987,0.66912 1.891148,1.315142 0.573192,0.835574 0.945062,2.088209 1.027198,3.460084 0.114083,1.905479 -0.623786,3.594033 -1.965876,4.498746 -0.150042,0.101144 -0.280125,0.189287 -0.289072,0.195871 -0.0089,0.0066 0.01298,0.332104 0.04872,0.723375 0.110775,1.212658 -0.07681,2.706031 -0.52655,4.191968 -1.773262,5.8588 -7.368665,11.899981 -11.667699,12.597249 -0.534937,0.08676 -1.448223,0.09533 -2.105892,0.01976 z m -3.961289,-4.759848 c 0.648158,-0.530839 2.059457,-1.329099 3.004185,-1.699228 2.238824,-0.877135 4.716721,-0.950347 7.169342,-0.211824 0.25083,0.07553 0.490217,0.124216 0.531969,0.108195 0.04427,-0.01699 0.07591,-0.106546 0.07591,-0.214858 0,-0.369665 -0.665012,-0.808823 -1.662529,-1.097892 -2.236088,-0.647993 -4.895022,-0.382095 -7.0658,0.706591 -1.425665,0.714997 -2.511228,1.685424 -2.511228,2.244883 0,0.129015 0.13042,0.347476 0.207441,0.347476 0.01477,0 0.127583,-0.0825 0.250708,-0.183343 z m 5.134349,-4.525069 c 1.109006,-0.31504 1.767547,-0.589016 2.353287,-0.979046 0.545948,-0.363535 0.811417,-0.918929 0.479101,-1.002335 -0.344228,-0.08639 -1.818688,0.125591 -3.979297,0.572114 -2.317051,0.478853 -3.354369,0.728811 -3.354369,0.808288 0,0.154488 0.357029,0.455673 0.668225,0.563705 0.524729,0.182161 0.837005,0.210726 2.114383,0.19341 1.123464,-0.01523 1.269285,-0.02848 1.71867,-0.156136 z M 20.930647,30.810091 c -1.247101,-0.789976 -2.488859,-2.259626 -2.489001,-2.945793 -6.3e-5,-0.300412 0.116307,-0.482547 0.502898,-0.787108 0.600868,-0.473369 1.008649,-0.721052 1.462847,-0.888519 0.243285,-0.0897 0.453247,-0.163096 0.466581,-0.163096 0.01333,0 -0.03498,0.09382 -0.107367,0.208483 -0.230755,0.36554 -0.322619,0.714049 -0.347991,1.320196 -0.02144,0.512311 -0.0087,0.619626 0.119208,1.000535 0.313963,0.93528 1.035524,1.620896 1.968572,1.870508 0.416011,0.111293 1.204436,0.09474 1.621376,-0.03404 1.138903,-0.351771 2.005784,-1.519721 2.005174,-2.701572 -1.86e-4,-0.359804 -0.125955,-0.940192 -0.266998,-1.232116 -0.06225,-0.128835 -0.113175,-0.241646 -0.113175,-0.25069 0,-0.0275 0.718729,0.419347 1.009377,0.62755 0.150043,0.107481 0.585849,0.44906 0.968457,0.759062 0.382609,0.310003 0.695652,0.543805 0.695652,0.519559 0,-0.09164 -0.500418,-0.917149 -0.785914,-1.296465 -0.845655,-1.123554 -2.028844,-1.969867 -3.169755,-2.267265 -0.626594,-0.163333 -1.609371,-0.19961 -2.230124,-0.08232 -1.051944,0.198763 -1.806066,0.513299 -3.460943,1.443522 -1.207062,0.678501 -1.602038,0.838144 -2.092842,0.845889 -0.283768,0.0045 -0.351227,0.02068 -0.307188,0.07377 0.0956,0.115251 0.58981,0.232057 0.981835,0.232057 h 0.373063 l -0.04196,0.150042 c -0.02308,0.08252 -0.04194,0.334752 -0.04191,0.560508 7.7e-5,0.583226 0.219739,1.017468 0.814704,1.610562 0.734892,0.732582 1.93486,1.442747 2.51346,1.487516 0.03001,0.0023 0.0084,-0.02502 -0.04804,-0.06077 z m 19.845791,-3.343244 c 1.339687,-0.345411 2.260329,-1.626773 2.14529,-2.985845 -0.06299,-0.744218 -0.344232,-1.342288 -0.870817,-1.851846 l -0.324208,-0.313725 h 0.439316 c 0.581935,0 1.79254,0.291019 2.191865,0.526906 0.482057,0.284758 0.447132,1.143954 -0.09755,2.399773 -0.251611,0.580118 -0.609758,1.206507 -0.839346,1.467994 -0.135272,0.154066 -0.147876,0.188447 -0.06908,0.188447 0.155532,0 1.009909,-0.911346 1.376327,-1.468098 0.454466,-0.690537 0.675764,-1.266029 0.708805,-1.843274 0.03308,-0.577907 -0.0069,-0.771578 -0.22632,-1.097708 l -0.179989,-0.267463 0.366477,-0.118032 c 0.34126,-0.10991 0.870481,-0.479874 0.870481,-0.608529 0,-0.02577 -0.116624,0.0069 -0.259165,0.07259 -0.387553,0.178614 -1.182395,0.158288 -2.452313,-0.06271 -2.37378,-0.413102 -3.666739,-0.344629 -4.963792,0.262876 -0.540225,0.253027 -0.837739,0.453353 -1.276277,0.859362 -0.9693,0.897401 -1.657126,2.288997 -1.905456,3.855082 -0.03273,0.206374 -0.04887,0.385856 -0.03587,0.39885 0.01299,0.01299 0.201562,-0.27862 0.419042,-0.64803 0.417552,-0.709252 0.969131,-1.525632 1.246364,-1.844714 l 0.165917,-0.190964 0.0022,0.494786 c 0.0038,0.853653 0.239946,1.419916 0.841968,2.019199 0.583812,0.581157 1.169192,0.827389 1.989544,0.836874 0.220732,0.0026 0.55219,-0.03426 0.736572,-0.08179 z"
     id="path8" />
  <path
     style="fill:#ffffff;stroke:#000000;stroke-width:0.109122"
     d="m 25.836988,60.767263 c -0.04381,-0.321584 -1.011754,-10.837356 -1.011754,-10.991732 0,-0.119052 -0.0193,-0.125062 -0.40174,-0.125062 h -0.401741 l -0.09278,-0.467183 C 23.72432,48.152806 22.848359,45.96964 22.400111,45.372894 21.355229,43.98186 19.196842,43.46745 15.98636,43.844299 c -0.817687,0.09598 -1.55642,0.230431 -2.843752,0.517565 -0.528769,0.11794 -1.004971,0.214436 -1.058226,0.214436 -0.09097,0 -0.09485,-0.08008 -0.06411,-1.323103 0.05537,-2.238899 0.306462,-3.576713 0.898607,-4.787724 0.4711,-0.963459 1.274279,-1.582448 2.455095,-1.892077 0.4295,-0.112622 0.703377,-0.144425 1.438052,-0.16699 l 0.907511,-0.02787 0.233749,0.40238 c 1.779621,3.063458 5.135546,6.049319 8.945834,7.959357 1.871729,0.93827 3.870739,1.595337 5.552881,1.825211 0.808181,0.110442 2.083735,0.108917 2.743837,-0.0033 2.646805,-0.449874 5.737627,-2.600363 8.35475,-5.812953 0.973914,-1.195505 2.043663,-2.806436 2.61726,-3.941318 l 0.217292,-0.429922 0.855169,0.02853 c 1.028863,0.03433 1.67773,0.182323 2.367808,0.540049 1.571947,0.814874 2.282523,2.704447 2.371606,6.306605 0.03216,1.300417 0.03084,1.323103 -0.07711,1.323103 -0.06041,0 -0.53661,-0.09738 -1.058226,-0.216394 -1.081297,-0.246718 -2.267964,-0.45856 -3.103553,-0.554044 -0.840633,-0.09606 -2.532,-0.08246 -3.173044,0.02551 -1.562516,0.263175 -2.608633,0.87392 -3.18224,1.857859 -0.402131,0.689795 -1.133918,2.641529 -1.316463,3.511111 l -0.09449,0.450128 h -0.387919 -0.387919 l -0.506533,5.524297 c -0.278593,3.038363 -0.519191,5.591815 -0.534661,5.674339 l -0.02813,0.150042 h -6.130429 -6.130429 z"
     id="path9" />
  <path
     style="fill:#ffffff;stroke:#000000;stroke-width:0.109122"
     d="m 18.523946,48.714589 c 0.03563,-0.59308 0.0307,-0.659568 -0.04672,-0.629858 -0.371546,0.142575 -2.892872,0.561697 -4.345939,0.722428 -1.07171,0.118547 -3.904228,0.167532 -4.8572183,0.084 -2.1214689,-0.185954 -3.6590432,-0.641067 -4.718229,-1.39657 -0.3868008,-0.2759 -1.3046764,-1.200923 -1.2612944,-1.271117 0.052439,-0.08485 0.7038756,-0.120426 3.1709278,-0.173177 3.2954921,-0.07046 4.6077399,-0.175828 6.1208399,-0.491454 0.414612,-0.08649 1.220337,-0.254457 1.790499,-0.373267 1.506837,-0.313995 2.479211,-0.410777 3.785988,-0.376823 1.237896,0.03216 1.844475,0.155133 2.522355,0.511349 0.586002,0.307935 0.880032,0.626013 1.191439,1.288883 0.46055,0.980338 0.984446,2.419315 0.984446,2.70396 0,0.04885 -0.53683,0.06472 -2.188467,0.06472 h -2.188468 z"
     id="path10" />
  <path
     style="fill:#ffffff;stroke:#000000;stroke-width:0.109122"
     d="m 17.420502,60.712702 c 0.01682,-0.157544 0.16103,-2.477749 0.320469,-5.15601 l 0.289888,-4.869565 h 2.906139 c 1.598377,0 2.906139,0.01319 2.906139,0.0293 0,0.01612 0.208696,2.280509 0.463768,5.031982 0.255073,2.751474 0.463768,5.058492 0.463768,5.126707 v 0.124027 h -3.690376 -3.690376 z"
     id="path11" />
  <path
     style="fill:#ffffff;stroke:#000000;stroke-width:0.109122"
     d="m 14.298864,60.06817 c -0.696744,-2.902375 -1.2897,-5.955189 -1.696358,-8.733657 -0.08943,-0.611053 -0.162608,-1.162477 -0.162608,-1.225385 0,-0.1087 0.04402,-0.117693 0.886615,-0.181128 1.332647,-0.10033 3.605745,-0.398576 4.041973,-0.530335 0.07991,-0.02414 0.09632,-0.0046 0.08184,0.09767 -0.01478,0.104367 -0.05569,0.130966 -0.222706,0.144789 -0.181444,0.01502 -0.204631,0.03354 -0.204852,0.163683 -1.38e-4,0.08071 -0.147452,2.57501 -0.327366,5.542883 -0.179914,2.967874 -0.327117,5.453808 -0.327117,5.524297 v 0.128162 H 15.44532 14.522354 Z"
     id="path12" />
  <path
     style="fill:#ffffff;stroke:#000000;stroke-width:0.109122"
     d="m 39.229327,60.883498 c 0,-0.06361 0.208695,-2.370032 0.463768,-5.12539 0.255072,-2.755358 0.463768,-5.023521 0.463768,-5.040361 0,-0.01684 1.307749,-0.03062 2.90611,-0.03062 h 2.90611 l 0.289624,4.869565 c 0.159293,2.678261 0.303517,4.998466 0.320498,5.15601 l 0.03087,0.286445 h -3.690376 -3.690376 z"
     id="path13" />
  <path
     style="fill:#ffffff;stroke:#000000;stroke-width:0.109122"
     d="m 41.13896,49.312943 c 0,-0.28411 0.526111,-1.734556 0.972179,-2.680221 0.324717,-0.688398 0.612023,-1.001702 1.203706,-1.312622 0.671768,-0.353005 1.286204,-0.478745 2.498739,-0.511353 1.469111,-0.03951 2.615731,0.09219 4.437055,0.509618 2.278426,0.522194 4.364474,0.729445 7.365729,0.731791 1.340698,10e-4 3.004588,0.09032 3.079493,0.165228 0.06868,0.06868 -0.795344,0.950881 -1.251701,1.278031 -1.04651,0.750215 -2.616805,1.215579 -4.718229,1.39827 -0.939995,0.08172 -3.786443,0.03308 -4.829938,-0.08253 -1.233336,-0.136644 -2.294307,-0.297999 -3.411514,-0.518832 l -1.046343,-0.206825 0.03888,0.647081 0.03888,0.64708 h -2.188468 c -1.651637,0 -2.188467,-0.01588 -2.188467,-0.06472 z"
     id="path14" />
  <path
     style="fill:#ffffff;stroke:#000000;stroke-width:0.109122"
     d="m 47.631714,60.870985 c 0,-0.07049 -0.147203,-2.556423 -0.327117,-5.524297 -0.179914,-2.967873 -0.327228,-5.462171 -0.327366,-5.542883 -2.21e-4,-0.130139 -0.02341,-0.148666 -0.204852,-0.163683 -0.158976,-0.01316 -0.208226,-0.04228 -0.220843,-0.130571 l -0.01624,-0.113638 0.725532,0.121993 c 1.082547,0.182021 1.909259,0.283058 3.167134,0.387072 1.076674,0.08903 1.13214,0.09913 1.13214,0.206073 0,0.191849 -0.314277,2.271123 -0.546879,3.618182 -0.357404,2.069812 -0.816153,4.286664 -1.315297,6.356018 l -0.220439,0.913896 H 48.5546 47.631714 Z"
     id="path15" />
</svg>
