<?xml version="1.0" encoding="UTF-8" standalone="no"?>
<svg
   version="1.1"
   x="0px"
   y="0px"
   viewBox="0 0 86.324997 85.306"
   enable-background="new 0 0 100 100"
   xml:space="preserve"
   id="svg5"
   sodipodi:docname="vitruvian-man.svg"
   width="86.324997"
   height="85.306"
   inkscape:version="1.3 (0e150ed6c4, 2023-07-21)"
   xmlns:inkscape="http://www.inkscape.org/namespaces/inkscape"
   xmlns:sodipodi="http://sodipodi.sourceforge.net/DTD/sodipodi-0.dtd"
   xmlns="http://www.w3.org/2000/svg"
   xmlns:svg="http://www.w3.org/2000/svg"><defs
     id="defs5" /><sodipodi:namedview
     id="namedview5"
     pagecolor="#505050"
     bordercolor="#ffffff"
     borderopacity="1"
     inkscape:showpageshadow="0"
     inkscape:pageopacity="0"
     inkscape:pagecheckerboard="1"
     inkscape:deskcolor="#d1d1d1"
     inkscape:zoom="6.63549"
     inkscape:cx="-11.152153"
     inkscape:cy="51.164269"
     inkscape:window-width="3440"
     inkscape:window-height="1417"
     inkscape:window-x="3432"
     inkscape:window-y="-8"
     inkscape:window-maximized="1"
     inkscape:current-layer="svg5"
     showguides="false" /><rect
     style="display:inline;fill:#ffffff;stroke:#000000;stroke-width:0;stroke-dasharray:none"
     id="rect16"
     width="70.831245"
     height="69.776314"
     x="7.6956577"
     y="14.796848"
     inkscape:label="rect16" /><ellipse
     style="fill:#ffffff;stroke:#000000;stroke-width:0;stroke-dasharray:none"
     id="path16"
     cx="43.176918"
     cy="42.498741"
     rx="42.724804"
     ry="42.197334" /><path
     fill="#000000"
     stroke="#3676bb"
     stroke-width="1.1096"
     d="M 43.255,27.523"
     id="path1"
     style="display:inline" /><path
     d="m 43.797,84.192 c -0.212,0.002 -0.421,0.016 -0.634,0.016 -0.216,0 -0.43,-0.014 -0.646,-0.018 -0.383,0.443 -0.855,0.807 -1.388,1.064 0.674,0.031 1.352,0.051 2.033,0.051 0.679,0 1.352,-0.02 2.022,-0.051 -0.532,-0.258 -1.004,-0.621 -1.387,-1.062 z"
     id="path2"
     style="display:none" /><path
     d="M 43.163,0 C 19.363,0 0,19.133 0,42.651 0,64.006 15.966,81.744 36.722,84.828 36.249,84.476 35.858,84.031 35.563,83.519 31.879,82.851 28.36,81.722 25.078,80.173 c 1.069,-0.037 2.094,-0.602 2.66,-1.6 l 7.24,-12.748 10e-4,-12.891 -12.78,22.496 c -0.607,1.07 -0.514,2.34 0.114,3.307 C 9.649,71.574 1.109,58.102 1.109,42.651 c 0,-9.677 3.357,-18.574 8.972,-25.638 -0.209,0.937 0.188,2.028 1.497,2.646 l 14.35,6.755 H 36.436 L 13.487,15.608 c -0.815,-0.385 -1.544,-0.372 -2.124,-0.132 7.711,-8.803 19.093,-14.38 31.8,-14.38 12.709,0 24.09,5.577 31.801,14.38 -0.58,-0.24 -1.309,-0.253 -2.123,0.132 L 49.892,26.414 h 10.506 l 14.35,-6.755 c 1.311,-0.617 1.707,-1.709 1.498,-2.646 5.613,7.063 8.971,15.961 8.971,25.639 0,15.453 -8.541,28.925 -21.205,36.085 0.627,-0.967 0.721,-2.236 0.113,-3.307 l -12.78,-22.498 -0.004,12.885 7.246,12.758 c 0.568,0.998 1.594,1.562 2.664,1.6 -3.287,1.551 -6.814,2.684 -10.504,3.348 -0.295,0.514 -0.688,0.957 -1.158,1.309 C 70.351,81.756 86.325,64.014 86.325,42.653 86.326,19.133 66.964,0 43.163,0 Z"
     id="path3"
     style="display:inline" /><path
     d="M 77.9,14.467 H 8.429 7.32 v 1.096 68.645 1.098 H 8.429 77.9 79.009 V 84.208 15.562 14.466 H 77.9 Z m -32.307,69.74 h -4.874 c 1.024,-0.529 1.73,-1.586 1.73,-2.816 L 42.454,54.69 h 1.415 l -0.006,26.701 c 0,1.23 0.707,2.287 1.73,2.816 z m 32.307,0 H 48.498 c 1.023,-0.529 1.729,-1.586 1.729,-2.816 l 0.016,-49.392 h 25.094 c 3.387,0 3.387,-4.476 0,-4.476 h -64.36 c -3.388,0 -3.388,4.476 0,4.476 h 25.115 l -0.007,49.392 c 0,1.23 0.708,2.287 1.73,2.816 H 8.429 V 15.562 h 32.292 c -1.908,0.915 -3.235,2.848 -3.235,5.104 0,3.136 2.542,5.678 5.678,5.678 3.137,0 5.678,-2.542 5.678,-5.678 0,-2.257 -1.326,-4.189 -3.234,-5.104 h 32.293 v 68.645 z"
     id="path4"
     style="display:inline" /></svg>
